<svg width="252" height="57" viewBox="0 0 252 57" fill="none" xmlns="http://www.w3.org/2000/svg">
<path d="M0.776 16.568C0.776 14.6053 1.39467 13.0907 2.632 12.024C3.912 10.9573 5.832 10.424 8.392 10.424V14.264C7.88 14.8613 7.368 15.544 6.856 16.312L7.24 16.568C8.52 14.648 10.1627 13.1547 12.168 12.088C14.1733 10.9787 16.392 10.424 18.824 10.424C21 10.424 22.92 10.9147 24.584 11.896C26.248 12.8773 27.528 14.2213 28.424 15.928C29.3627 17.6347 29.832 19.5547 29.832 21.688V38.712C29.832 40.4187 29.1707 41.656 27.848 42.424C26.5253 43.192 24.52 43.576 21.832 43.576V22.84C21.832 21.2187 21.3413 19.896 20.36 18.872C19.4213 17.848 18.0347 17.336 16.2 17.336C14.024 17.336 12.232 18.0187 10.824 19.384C9.416 20.7067 8.712 22.3707 8.712 24.376V38.712C8.712 40.4187 8.072 41.656 6.792 42.424C5.512 43.192 3.50667 43.576 0.776 43.576V16.568ZM50.9155 43.576C48.2702 43.576 45.8595 43.064 43.6835 42.04C41.5075 40.9733 39.7795 39.544 38.4995 37.752C37.2195 35.9173 36.5795 33.8693 36.5795 31.608V23.096C36.5795 20.7067 37.2408 18.552 38.5635 16.632C39.8862 14.712 41.6355 13.1973 43.8115 12.088C46.0302 10.9787 48.4195 10.424 50.9795 10.424C53.4968 10.424 55.8008 10.9573 57.8915 12.024C60.0248 13.048 61.7102 14.4987 62.9475 16.376C64.1848 18.2107 64.8035 20.3227 64.8035 22.712V26.296C64.8035 27.2347 64.4408 28.024 63.7155 28.664C63.0328 29.304 62.1582 29.624 61.0915 29.624H44.3235V31.032C44.3235 32.8667 44.8782 34.36 45.9875 35.512C47.0968 36.664 48.7608 37.24 50.9795 37.24C53.1128 37.24 54.6915 36.7707 55.7155 35.832C56.7822 34.8933 57.3155 33.6773 57.3155 32.184C58.0835 32.0987 58.6168 32.056 58.9155 32.056C60.4942 32.056 61.7315 32.4187 62.6275 33.144C63.5235 33.8267 63.9715 34.808 63.9715 36.088C63.9715 37.3253 63.3955 38.52 62.2435 39.672C61.0915 40.824 59.5128 41.7627 57.5075 42.488C55.5022 43.2133 53.3048 43.576 50.9155 43.576ZM57.5715 23.928V22.712C57.5715 20.92 56.9528 19.4693 55.7155 18.36C54.4782 17.2507 52.8782 16.696 50.9155 16.696C48.9528 16.696 47.3528 17.2507 46.1155 18.36C44.9208 19.4267 44.3235 20.8773 44.3235 22.712V23.928H57.5715ZM71.2885 43.576C70.4778 43.576 69.6458 43.448 68.7925 43.192C67.9392 42.936 67.2565 42.5307 66.7445 41.976L78.0085 26.424L67.7685 11.64C68.1098 11.256 68.7072 10.9573 69.5605 10.744C70.4565 10.5307 71.2672 10.424 71.9925 10.424C74.2112 10.424 75.7685 11.0853 76.6645 12.408L82.2325 21.176L80.9525 23.032L81.4005 23.352L88.6325 12.408C89.4432 11.0853 91.0858 10.424 93.5605 10.424C94.2432 10.424 94.9898 10.5307 95.8005 10.744C96.6112 10.9573 97.1872 11.256 97.5285 11.64L87.2245 26.424L98.5525 41.976C98.0405 42.5307 97.3792 42.936 96.5685 43.192C95.8005 43.448 95.0325 43.576 94.2645 43.576C93.3685 43.576 92.4938 43.4053 91.6405 43.064C90.7872 42.7653 90.1898 42.36 89.8485 41.848L82.6165 31.16L75.4485 41.848C75.0645 42.4027 74.4885 42.8293 73.7205 43.128C72.9952 43.4267 72.1845 43.576 71.2885 43.576ZM114.831 43.576C110.735 43.576 107.428 42.8507 104.911 41.4C102.436 39.9067 101.177 37.9227 101.135 35.448C101.135 34.3813 101.561 33.4853 102.415 32.76C103.311 32.0347 104.719 31.6507 106.639 31.608C107.023 33.4853 107.919 34.936 109.327 35.96C110.735 36.9413 112.441 37.432 114.447 37.432C116.623 37.432 118.329 37.1547 119.567 36.6C120.804 36.0453 121.423 35.2133 121.423 34.104C121.423 33.08 120.911 32.2267 119.887 31.544C118.905 30.8613 116.943 30.1787 113.999 29.496C110.799 28.728 108.303 27.96 106.51 27.192C104.761 26.424 103.46 25.4427 102.607 24.248C101.753 23.0533 101.327 21.4747 101.327 19.512C101.327 16.7813 102.479 14.584 104.783 12.92C107.087 11.256 110.244 10.424 114.255 10.424C118.137 10.424 121.359 11.128 123.919 12.536C126.479 13.9013 127.759 15.736 127.759 18.04C127.759 19.192 127.332 20.0453 126.479 20.6C125.625 21.1547 124.217 21.4533 122.255 21.496C121.828 19.7893 121.017 18.5093 119.823 17.656C118.628 16.8027 116.943 16.376 114.767 16.376C113.145 16.376 111.737 16.6533 110.543 17.208C109.391 17.7627 108.815 18.488 108.815 19.384C108.815 20.3227 109.305 21.048 110.287 21.56C111.268 22.072 112.975 22.584 115.407 23.096C120.185 24.12 123.641 25.4853 125.775 27.192C127.951 28.8987 129.039 31.224 129.039 34.168C129.039 37.0267 127.759 39.3093 125.199 41.016C122.681 42.7227 119.225 43.576 114.831 43.576ZM147.133 43.576C143.677 43.576 141.117 42.5733 139.453 40.568C137.789 38.5627 136.957 35.9813 136.957 32.824V16.952H130.365C130.365 14.9467 130.749 13.4533 131.517 12.472C132.285 11.4907 133.309 11 134.589 11H137.085V5.688C137.085 3.93867 137.725 2.70133 139.005 1.976C140.285 1.208 142.226 0.823997 144.829 0.823997V11H153.341C153.341 13.1333 152.936 14.6693 152.125 15.608C151.314 16.504 150.013 16.952 148.221 16.952H144.957V32.504C144.957 33.9973 145.234 35.064 145.789 35.704C146.386 36.344 147.389 36.664 148.797 36.664C150.29 36.664 151.784 36.2587 153.277 35.448C153.704 35.832 154.045 36.3227 154.301 36.92C154.557 37.4747 154.685 38.0507 154.685 38.648C154.685 39.928 154.024 41.08 152.701 42.104C151.378 43.0853 149.522 43.576 147.133 43.576ZM169.4 43.576C167.224 43.576 165.219 43.1493 163.384 42.296C161.592 41.4427 160.141 40.2267 159.032 38.648C157.965 37.0267 157.432 35.1067 157.432 32.888C157.432 30.6693 158.008 28.7493 159.16 27.128C160.312 25.464 161.869 24.2053 163.832 23.352C165.837 22.456 168.035 22.008 170.424 22.008C172.387 22.008 174.136 22.328 175.672 22.968C177.251 23.5653 178.701 24.4827 180.024 25.72L180.344 25.4C179.96 25.016 179.299 24.44 178.36 23.672V22.392C178.36 20.6427 177.741 19.256 176.504 18.232C175.267 17.208 173.539 16.696 171.32 16.696C167.352 16.696 164.429 18.1467 162.552 21.048C161.613 20.7493 160.824 20.28 160.184 19.64C159.544 18.9573 159.224 18.232 159.224 17.464C159.224 16.184 159.8 15.0107 160.952 13.944C162.104 12.8773 163.661 12.024 165.624 11.384C167.587 10.744 169.72 10.424 172.024 10.424C176.547 10.424 180.045 11.4907 182.52 13.624C184.995 15.7147 186.232 18.5733 186.232 22.2V38.2C186.232 40.0773 185.635 41.4427 184.44 42.296C183.245 43.1493 181.368 43.576 178.808 43.576V40.952C179.533 40.2267 180.024 39.6933 180.28 39.352L180.024 39.032C178.616 40.5253 177.101 41.656 175.48 42.424C173.901 43.192 171.875 43.576 169.4 43.576ZM171.448 37.752C173.667 37.752 175.395 37.3253 176.632 36.472C177.869 35.6187 178.488 34.4027 178.488 32.824C178.488 31.288 177.848 30.072 176.568 29.176C175.331 28.28 173.645 27.832 171.512 27.832C169.549 27.832 167.992 28.28 166.84 29.176C165.731 30.0293 165.176 31.2453 165.176 32.824C165.176 34.4453 165.731 35.6827 166.84 36.536C167.949 37.3467 169.485 37.752 171.448 37.752ZM194.334 56.376C192.67 56.376 191.347 55.8 190.366 54.648C189.427 53.496 188.958 51.832 188.958 49.656C190.238 49.8693 191.304 49.976 192.158 49.976C193.779 49.976 195.059 49.5493 195.998 48.696C196.979 47.8427 198.046 46.136 199.198 43.576L200.222 41.208L187.87 11.064C188.168 10.8933 188.68 10.744 189.406 10.616C190.174 10.488 190.792 10.424 191.262 10.424C192.499 10.424 193.63 10.7013 194.654 11.256C195.678 11.768 196.382 12.4933 196.766 13.432L203.614 31.416L202.526 34.424L203.102 34.616L211.358 13.432C211.742 12.4507 212.424 11.704 213.406 11.192C214.43 10.68 215.56 10.424 216.798 10.424C217.267 10.424 217.864 10.488 218.59 10.616C219.358 10.744 219.912 10.8933 220.254 11.064L205.918 45.88C204.424 49.464 202.782 52.1093 200.99 53.816C199.24 55.5227 197.022 56.376 194.334 56.376ZM246.549 43.576C245.141 43.576 243.946 43.128 242.965 42.232C242.026 41.2933 241.557 40.12 241.557 38.712C241.557 37.304 242.026 36.1307 242.965 35.192C243.946 34.2107 245.141 33.72 246.549 33.72C247.914 33.72 249.088 34.2107 250.069 35.192C251.093 36.1307 251.605 37.304 251.605 38.712C251.605 40.0773 251.093 41.2293 250.069 42.168C249.088 43.1067 247.914 43.576 246.549 43.576Z" fill="#FF385C"/>
</svg>
