<svg width="64" height="64" viewBox="0 0 64 64" fill="none" xmlns="http://www.w3.org/2000/svg">
<circle cx="32" cy="32" r="32" fill="white"/>
<mask id="mask0_17_37" style="mask-type:alpha" maskUnits="userSpaceOnUse" x="0" y="0" width="64" height="64">
<circle cx="32" cy="32" r="32" fill="white"/>
</mask>
<g mask="url(#mask0_17_37)">
<path d="M10.664 25.352C10.664 22.408 11.592 20.136 13.448 18.536C15.368 16.936 18.248 16.136 22.088 16.136V21.896C21.32 22.792 20.552 23.816 19.784 24.968L20.36 25.352C22.28 22.472 24.744 20.232 27.752 18.632C30.76 16.968 34.088 16.136 37.736 16.136C41 16.136 43.88 16.872 46.376 18.344C48.872 19.816 50.792 21.832 52.136 24.392C53.544 26.952 54.248 29.832 54.248 33.032V58.568C54.248 61.128 53.256 62.984 51.272 64.136C49.288 65.288 46.28 65.864 42.248 65.864V34.76C42.248 32.328 41.512 30.344 40.04 28.808C38.632 27.272 36.552 26.504 33.8 26.504C30.536 26.504 27.848 27.528 25.736 29.576C23.624 31.56 22.568 34.056 22.568 37.064V58.568C22.568 61.128 21.608 62.984 19.688 64.136C17.768 65.288 14.76 65.864 10.664 65.864V25.352Z" fill="#4F45E5"/>
</g>
</svg>
